<svg width="35" height="33" viewBox="0 0 35 33" fill="none" xmlns="http://www.w3.org/2000/svg">
<path d="M26.5297 32.3004H8.49721C7.00446 32.3106 5.53587 31.9234 4.24225 31.1784C2.94862 30.4335 1.87658 29.3576 1.13619 28.0614C0.392194 26.7921 0 25.3475 0 23.8762C0 22.405 0.392194 20.9604 1.13619 19.6911L10.1928 4.202C10.9397 2.92321 12.0086 1.8624 13.293 1.12516C14.5774 0.387929 16.0325 0 17.5135 0C18.9944 0 20.4495 0.387929 21.7339 1.12516C23.0183 1.8624 24.0872 2.92321 24.8341 4.202L33.8638 19.6911C34.6078 20.9604 35 22.405 35 23.8762C35 25.3475 34.6078 26.7921 33.8638 28.0614C33.1257 29.3537 32.0579 30.4269 30.7694 31.1716C29.4809 31.9163 28.0179 32.3059 26.5297 32.3004ZM17.5135 2.6948C16.5032 2.68576 15.5087 2.94511 14.6315 3.44635C13.7543 3.94759 13.026 4.67275 12.5209 5.5477L3.49118 21.0503C2.98589 21.9088 2.71944 22.8868 2.71944 23.883C2.71944 24.8791 2.98589 25.8572 3.49118 26.7157C3.99114 27.6011 4.71913 28.3364 5.59949 28.8453C6.47985 29.3541 7.48043 29.6178 8.49721 29.609H26.5297C27.5488 29.6202 28.5521 29.3576 29.4351 28.8487C30.318 28.3398 31.0481 27.6031 31.5492 26.7157C32.0545 25.8572 32.3209 24.8791 32.3209 23.883C32.3209 22.8868 32.0545 21.9088 31.5492 21.0503L22.506 5.5477C22.0009 4.67275 21.2726 3.94759 20.3954 3.44635C19.5182 2.94511 18.5237 2.68576 17.5135 2.6948Z" fill="#F59999"/>
<path d="M17.5134 10.769C17.3984 10.768 17.2847 10.7943 17.1817 10.8457C17.0788 10.8972 16.9895 10.9724 16.9213 11.0651C16.8475 11.1534 16.7966 11.2585 16.7731 11.3712C16.7497 11.4839 16.7543 11.6006 16.7868 11.711L17.5134 14.6447L18.2401 11.711C18.2725 11.6006 18.2772 11.4839 18.2537 11.3712C18.2303 11.2585 18.1794 11.1534 18.1056 11.0651C18.0374 10.9724 17.9481 10.8972 17.8452 10.8457C17.7422 10.7943 17.6285 10.768 17.5134 10.769Z" fill="#F59999"/>
<path d="M20.2049 9.42334C19.8822 9.01943 19.4727 8.69334 19.0067 8.46924C18.5408 8.24513 18.0305 8.12877 17.5135 8.12877C16.9965 8.12877 16.4861 8.24513 16.0202 8.46924C15.5543 8.69334 15.1448 9.01943 14.822 9.42334C14.497 9.83272 14.2718 10.3122 14.1644 10.8238C14.0569 11.3353 14.0702 11.8649 14.203 12.3704L16.1678 20.512C16.2407 20.803 16.4087 21.0612 16.6452 21.2458C16.8817 21.4303 17.1731 21.5305 17.4731 21.5305C17.7731 21.5305 18.0644 21.4303 18.3009 21.2458C18.5374 21.0612 18.7055 20.803 18.7784 20.512L20.8104 12.357C20.943 11.8544 20.9572 11.328 20.8522 10.819C20.7471 10.3101 20.5256 9.83233 20.2049 9.42334ZM18.2401 11.711L17.5135 14.6447L16.7868 11.711C16.7544 11.6006 16.7497 11.4839 16.7732 11.3712C16.7966 11.2585 16.8475 11.1534 16.9214 11.0651C16.9903 10.9732 17.0797 10.8986 17.1825 10.8472C17.2852 10.7958 17.3986 10.769 17.5135 10.769C17.6284 10.769 17.7417 10.7958 17.8445 10.8472C17.9472 10.8986 18.0366 10.9732 18.1056 11.0651C18.1794 11.1534 18.2303 11.2585 18.2538 11.3712C18.2772 11.4839 18.2726 11.6006 18.2401 11.711Z" fill="#F59999"/>
<path d="M17.5134 26.9176C18.6283 26.9176 19.532 26.0138 19.532 24.899C19.532 23.7842 18.6283 22.8804 17.5134 22.8804C16.3986 22.8804 15.4949 23.7842 15.4949 24.899C15.4949 26.0138 16.3986 26.9176 17.5134 26.9176Z" fill="#F59999"/>
</svg>
