<svg width="64" height="64" viewBox="0 0 64 64" fill="none" xmlns="http://www.w3.org/2000/svg">
<path d="M27.9625 16.35L18.6375 0.97125C18.3875 0.368625 17.7375 0 17.0375 0H2.00372C0.384975 0 -0.562525 1.8225 0.366225 3.1475L14.2787 23.01C17.9875 19.55 22.7125 17.1625 27.9625 16.35ZM32 20C19.8437 20 9.99997 29.8438 9.99997 42C9.99997 54.1562 19.85 64 32 64C44.15 64 54 54.1562 54 42C54 29.8438 44.1625 20 32 20ZM43.5625 39.6625L38.8275 44.2875L39.9368 50.8187C40.14 51.975 38.9056 52.8812 37.8581 52.3187L31.9981 49.2412L26.1375 52.3125C25.0906 52.875 23.8562 51.9688 24.0587 50.8125L25.1681 44.2812L20.4331 39.6562C19.575 38.825 20.0625 37.375 21.2375 37.2L27.785 36.2469L30.7125 30.3125C30.9625 29.7812 31.4781 29.5156 31.9937 29.5156C32.5093 29.5156 33.025 29.7875 33.275 30.3125L36.2125 36.25L42.76 37.2031C43.95 37.375 44.425 38.825 43.5625 39.6625ZM61.8875 0H46.9625C46.2598 0 45.6087 0.368625 45.2475 0.97125L36.0275 16.2337C41.2775 17.0462 46.0125 19.4362 49.715 22.9062L63.6275 3.04375C64.5625 1.8225 63.6125 0 61.8875 0Z" fill="#17E077"/>
</svg>
