<svg width="21" height="21" viewBox="0 0 21 21" fill="none" xmlns="http://www.w3.org/2000/svg">
<path d="M10.5 21C16.292 21 21 16.2919 21 10.5C21 4.70806 16.292 0 10.5 0C4.7081 0 3.05176e-05 4.70806 3.05176e-05 10.5C3.05176e-05 16.2919 4.7081 21 10.5 21ZM2.371 14.6831L6.63874 14.6492C7.11293 16.3597 7.9089 18.0194 8.99277 19.5097C6.0968 19.0355 3.67503 17.1895 2.371 14.6831ZM7.72261 7.62097H13.0404C13.4299 9.48387 13.4299 11.3976 13.0742 13.2605L7.72261 13.2944C7.3331 11.4145 7.3331 9.48387 7.72261 7.62097ZM10.3815 19.1202C9.31455 17.7484 8.53551 16.2411 8.06132 14.6492L12.7186 14.6153C12.2274 16.2073 11.4484 17.7315 10.3815 19.1202ZM11.7363 19.5605C12.8541 18.0363 13.65 16.3597 14.1242 14.5984L18.6799 14.5645C17.3589 17.2234 14.7847 19.1371 11.7363 19.5605ZM19.6452 10.5C19.6452 11.4484 19.4928 12.3629 19.2387 13.2097L14.446 13.2435C14.7847 11.3806 14.7678 9.48387 14.4121 7.62097H19.171C19.4758 8.51855 19.6452 9.50081 19.6452 10.5ZM18.5952 6.26613H14.0904C13.5992 4.57258 12.8202 2.92984 11.7363 1.43952C14.7339 1.84597 17.2573 3.69194 18.5952 6.26613ZM12.6847 6.26613H8.07826C8.56939 4.70806 9.33148 3.23468 10.3815 1.87984C11.4315 3.23468 12.1936 4.70806 12.6847 6.26613ZM8.99277 1.49032C7.92584 2.96371 7.14681 4.57258 6.67261 6.26613H2.40487C3.7089 3.77661 6.11374 1.96452 8.99277 1.49032ZM6.35084 7.62097C5.99519 9.50081 5.99519 11.4145 6.3339 13.2944L1.81213 13.3282C1.50729 12.4306 1.35487 11.4823 1.35487 10.5C1.35487 9.50081 1.52422 8.51855 1.82906 7.62097H6.35084Z" fill="#868686" fill-opacity="0.59"/>
</svg>
